<svg id="Layer_1" data-name="Layer 1" xmlns="http://www.w3.org/2000/svg" viewBox="0 0 21.5 18.82"><defs><style>.cls-1{fill:#1c1c1e;}</style></defs><path class="cls-1" d="M3.25,13.21a.86.86,0,0,0,.92.86,1.19,1.19,0,0,0,.73-.33l8.72-7.32a.56.56,0,0,1,.78,0l8.71,7.32a1.14,1.14,0,0,0,.72.33.85.85,0,0,0,.92-.84.94.94,0,0,0-.34-.73l-2.47-2.07V6.77a.61.61,0,0,0-.65-.64H20.07a.61.61,0,0,0-.65.64V8.31l-4.16-3.5a1.87,1.87,0,0,0-2.5,0L3.6,12.5A1,1,0,0,0,3.25,13.21Zm2.86,7.91a1.91,1.91,0,0,0,2.1,2H19.8a1.91,1.91,0,0,0,2.1-2V14.44L14.54,8.28a.77.77,0,0,0-1.08,0L6.11,14.44Zm10.2.37H11.7V15.87a.64.64,0,0,1,.68-.68h3.25a.64.64,0,0,1,.68.68Z" transform="translate(-3.25 -4.33)"/></svg>