<svg id="Layer_1" data-name="Layer 1" xmlns="http://www.w3.org/2000/svg" viewBox="0 0 300.14 192.98"><defs><style>.cls-1{fill:#231f20;}</style></defs><path class="cls-1" d="M40,505.17c-1.27-16.24,14.47-29.7,29.45-34.52,10.15-3.3,19.29-9.39,28.43-15.23,11.93-7.62,20.81-17.52,30-23.61a10.14,10.14,0,0,1,8.89-1c9.9,3.3,8.37,16.76,5.83,29.71-1,4.56.51,3.55,3.56,4.06,7.61.5,25.13.76,28.94,2.28,4.06,1.52,6.85,5.33,6.34,9.14a7.75,7.75,0,0,1-7.87,6.85c-29.44-1-2,.26-30.71-1.52-6.09-.51-6.09-.51-8.63,5.08A139.59,139.59,0,0,1,124,505.17c-9.9,15.23-28.68,28.94-46.45,28.94S41.27,521.93,40,505.17Zm76.66-21.58c.76-2,1.27-2.79-5.58-2.79-15,0-24.88,1.53-34.78,5.33-10.15,4.07-20,11.17-19.29,18,.76,7.61,13.2,12.94,20.31,12.94C92.8,517.1,110.06,500.6,116.66,483.59Zm8.89-25.13a5.55,5.55,0,0,0,.25-2.79c-2.79,2-5.33,4.32-7.87,6.35-1.78,1.27-1.52,1.27,1.27,1.27C124.28,463.29,124,462.78,125.55,458.46Z" transform="translate(-39.93 -344.17)"/><path class="cls-1" d="M170.47,464.81c8.64-32.24,23.87-65.49,44.43-88.08,8.88-9.65,20.56-18.53,31-18.53,11.93,0,14.47,11.93,11.42,22.59-7.62,25.89-32,59.91-52.29,82-7.36,8.12-20.31,16.25-20.82,19.55-2.79,17-4.57,32.74,2.54,37.31,4.32,2.29,11.68-2.28,17-6.6,9.39-8.12,16.24-17.51,21.83-25.64,9.14-13.45,14.72-23.35,22.59-19.29A8.05,8.05,0,0,1,252,477c-2.79,12.18-23.61,36.55-36.3,48.48-6.35,5.84-16.75,11.68-24.37,11.68C159.05,537.16,161.34,498.83,170.47,464.81Zm69.3-86.56c-5.07,1.78-10.4,7.87-14.46,12.18-12.19,13.2-35.54,60.16-32,60.16C201.19,450.59,243.84,378.25,239.77,378.25Z" transform="translate(-39.93 -344.17)"/><path class="cls-1" d="M238.25,498.57c-.76-19,1.52-39.34,7.36-61.94,5.08-19,11.93-34.52,11.93-36.3,0-3-49.25-.25-54.07-2.28-3.81-1.78-5.33-4.57-5.33-7.87,0-10.41,14.72-8.38,32-8.38,20.31,0,26.66-.25,31.23,0,4.06.26,6.09-1,8.12-4.57,6.85-12.18,20-28.17,30.21-32,7.36-2.79,14.72,0,17.77,6.6,4.06,8.88,2,13.71-.76,26.65-.51,3.05-.26,3.56,2.79,3.56,11.68,0,20,.5,20.56,8.12.76,10.41-13.71,9.39-26.15,8.88-3.8-.25-6.09,1-7.87,4.83a161.63,161.63,0,0,1-19.54,31c-12.44,15.48-29.7,30.71-30.21,34.52-1.52,17-2.54,31.48,1.78,38.33,2.28,3.81,5.58,4.82,9.64,3.05,9.9-4.57,18.53-17,26.91-27.93,7.87-11.42,11.17-18.53,19.29-14.21a8,8,0,0,1,3.56,9.64c-1.78,5.08-22.34,32.75-29.45,39.1-7.36,6.34-16,11.42-24.11,11.42C248.66,528.78,239,514.82,238.25,498.57Zm50.51-99c0-.51-4.31-.51-5.58-.51-5.08,0-6.35.51-7.62,3.05a207.5,207.5,0,0,0-11.67,33.25S288.76,404.14,288.76,399.57Zm13.46-34.77c0-4.32-13.2,13.2-14.73,16.24,0,1,1.78,1,8.38.76C299.93,381,302.22,368.86,302.22,364.8Z" transform="translate(-39.93 -344.17)"/></svg>